# xmcd
#
# Track frame offsets:
#  150
#  21435
#  41302
#  58995
#
# Disc length: 1066 seconds
#
# Revision: 0
# Processed by: cddbd v1.5.1PL0 Copyright (c) Steve Scherf et al.
# Submitted via: Collectorz.com Music Collector 6.9
#
DISCID=30042804
DTITLE=Cock Robin - Worlds Apart
DYEAR=1990
DGENRE=Easy Listening
TTITLE0=Worlds Apart (Edit)
TTITLE1=We've Changed
TTITLE2=The Promise You Made
TTITLE3=When Your Heart Is Weak
EXTD=
EXTT0=
EXTT1=
EXTT2=
EXTT3=
PLAYORDER=
